<?xml version="1.0" standalone="no"?>
<!DOCTYPE svg PUBLIC "-//W3C//DTD SVG 20010904//EN"
 "http://www.w3.org/TR/2001/REC-SVG-20010904/DTD/svg10.dtd">
<svg version="1.0" xmlns="http://www.w3.org/2000/svg"
 width="600.000000pt" height="600.000000pt" viewBox="0 0 600.000000 600.000000"
 preserveAspectRatio="xMidYMid meet">
<metadata>
Created by potrace 1.14, written by Peter Selinger 2001-2017
</metadata>
<g transform="translate(0.000000,600.000000) scale(0.100000,-0.100000)"
fill="#000000" stroke="none">
<path d="M2941 4851 c-7 -13 -6 -23 3 -36 19 -27 46 -12 46 25 0 23 -4 30 -20
30 -10 0 -24 -8 -29 -19z"/>
<path d="M2963 4584 c-4 -22 -8 -150 -8 -285 0 -222 2 -249 18 -266 16 -18 16
-23 2 -56 -21 -50 -20 -156 1 -172 15 -10 14 -17 -12 -69 -25 -51 -27 -61 -15
-89 13 -34 21 -127 11 -127 -3 0 -4 -18 -2 -39 5 -50 27 -60 59 -28 22 22 23
26 12 76 -8 38 -8 60 0 79 7 18 9 76 5 167 -3 77 -5 159 -5 183 1 24 -3 42
-10 42 -6 0 -9 23 -8 63 2 35 -2 72 -9 85 -9 15 -13 90 -15 241 -1 121 -5 223
-9 226 -4 4 -10 -10 -15 -31z m47 -594 c0 -5 -4 -10 -10 -10 -5 0 -10 5 -10
10 0 6 5 10 10 10 6 0 10 -4 10 -10z"/>
<path d="M2900 3330 c-19 -24 -36 -33 -68 -37 -59 -8 -65 -28 -19 -68 42 -37
44 -48 17 -92 -19 -32 -21 -33 -94 -33 l-74 0 -16 -34 c-12 -25 -25 -36 -47
-41 -37 -8 -115 -63 -124 -87 -3 -9 -22 -22 -41 -28 -19 -7 -40 -20 -47 -31
-7 -12 -23 -19 -41 -19 -17 0 -41 -12 -63 -30 -18 -16 -40 -30 -48 -30 -15 0
-19 -15 -15 -58 1 -20 -2 -22 -47 -20 -45 1 -51 -2 -99 -49 -35 -35 -63 -52
-88 -57 -29 -6 -40 -14 -53 -41 -11 -23 -27 -38 -49 -45 -18 -6 -38 -18 -45
-26 -7 -8 -19 -14 -28 -13 -23 3 -71 -12 -71 -21 0 -5 5 -12 10 -15 22 -13 10
-35 -19 -35 -17 0 -42 -11 -59 -25 -17 -14 -41 -25 -54 -25 -23 0 -82 34 -124
72 -29 26 -80 39 -109 28 -25 -9 -45 -62 -60 -155 -14 -89 -25 -93 -127 -45
-34 16 -80 30 -100 30 -36 0 -37 1 -52 54 -21 70 -37 83 -82 67 -29 -10 -38
-10 -64 5 -26 16 -34 16 -65 5 -22 -8 -52 -10 -80 -5 -45 6 -47 5 -88 -38 -52
-54 -148 -98 -172 -78 -8 7 -15 24 -15 39 0 29 -9 46 -59 114 -20 27 -43 47
-53 47 -37 0 -76 -29 -88 -65 -6 -19 -27 -51 -45 -70 -30 -33 -36 -35 -74 -29
-38 6 -43 4 -73 -31 -18 -20 -45 -43 -61 -51 l-27 -15 0 -988 1 -989 27 -7
c15 -4 74 -9 132 -10 378 -12 515 -17 521 -20 21 -14 213 -35 322 -36 121 -1
389 -21 432 -33 11 -2 76 -7 145 -10 69 -3 161 -8 205 -11 44 -2 485 -7 980
-10 792 -4 908 -3 970 11 38 9 80 20 93 25 13 5 64 9 115 10 51 0 108 5 127
12 33 12 35 14 38 67 6 85 2 260 -8 425 -5 83 -12 292 -15 465 -3 173 -10 387
-15 475 -13 210 -14 555 -3 566 5 5 17 7 25 4 19 -8 24 -60 39 -380 5 -126 14
-284 19 -350 15 -188 32 -543 46 -933 4 -121 11 -199 20 -221 17 -41 18 -73 3
-88 -8 -8 -6 -14 7 -21 28 -14 262 -31 614 -44 173 -6 333 -13 355 -15 70 -6
525 -22 668 -22 l137 -1 0 1100 c0 605 -3 1100 -7 1100 -16 -1 -49 -36 -61
-62 -11 -27 -15 -28 -80 -28 -62 0 -73 3 -107 30 -48 38 -77 38 -107 0 -72
-95 -70 -94 -110 -77 -34 14 -39 14 -73 -4 -49 -26 -69 -18 -102 43 -30 55
-42 61 -230 118 -67 20 -109 16 -143 -15 -18 -16 -145 -55 -180 -55 -11 0 -26
11 -35 23 -18 27 -55 47 -89 47 -13 0 -44 11 -67 25 -52 29 -76 31 -109 8 -20
-14 -53 -19 -165 -23 -137 -5 -142 -6 -168 -32 -28 -28 -43 -33 -71 -22 -17 7
-22 44 -6 44 6 0 10 7 10 15 0 9 -9 15 -23 15 -27 0 -47 17 -47 42 0 30 -23
68 -41 68 -10 0 -27 -13 -39 -30 -12 -16 -30 -30 -40 -30 -16 0 -18 5 -14 29
8 39 -24 59 -67 41 -33 -14 -59 -8 -59 14 0 9 -12 22 -27 30 -16 8 -40 28 -55
44 -19 22 -40 33 -73 37 -26 4 -60 19 -80 35 -19 15 -48 33 -65 40 -16 7 -30
16 -30 20 0 4 -11 11 -24 14 -14 3 -41 22 -62 41 -24 23 -46 35 -65 35 -22 0
-29 5 -29 20 0 13 -12 25 -35 34 -42 18 -42 16 -55 136 -5 52 -12 104 -13 114
-5 26 21 76 38 76 16 0 65 56 65 74 0 21 -31 42 -86 60 -28 9 -60 23 -70 31
-23 17 -70 20 -80 4 -6 -10 -35 -8 -79 5 -15 5 -27 -2 -45 -24z m-278 -547
c20 -18 24 -48 8 -58 -5 -3 -10 -24 -10 -46 0 -21 5 -39 10 -39 6 0 10 -8 10
-17 0 -20 73 -93 92 -93 72 1 148 48 148 92 0 10 5 18 10 18 6 0 10 20 10 44
0 25 5 48 11 51 14 9 61 -3 55 -14 -10 -15 35 -53 53 -45 44 19 78 16 98 -10
16 -20 30 -26 61 -26 l41 0 -10 -32 c-16 -57 -14 -61 34 -53 23 4 47 12 54 17
14 11 62 -19 63 -38 0 -7 17 -15 37 -19 52 -9 72 -22 83 -51 5 -13 16 -24 25
-24 8 0 15 -4 15 -9 0 -5 26 -11 58 -13 70 -6 175 -48 146 -59 -10 -4 -78 -8
-150 -8 -114 -1 -135 -4 -155 -20 -13 -11 -21 -22 -17 -26 12 -13 193 -23 270
-15 55 5 93 3 130 -6 29 -8 67 -14 85 -14 36 0 44 -13 16 -25 -10 -4 -121 -9
-248 -11 -221 -3 -295 3 -295 27 0 5 -11 9 -24 9 -17 0 -30 -10 -43 -32 -17
-30 -18 -47 -12 -188 4 -85 12 -276 19 -425 6 -148 15 -335 20 -415 5 -80 12
-271 15 -425 3 -154 8 -335 10 -402 6 -132 -1 -153 -50 -153 -38 0 -56 26 -49
69 3 21 1 47 -4 58 -8 14 -7 32 2 64 20 66 11 615 -11 683 -13 41 -13 54 -3
87 10 30 12 112 7 356 -3 175 -9 374 -13 443 -4 69 -8 143 -9 165 -4 72 -5 75
-20 75 -8 0 -15 4 -15 9 0 5 -13 11 -30 13 -16 3 -30 1 -30 -4 0 -12 -82 -10
-120 3 -24 9 -34 9 -39 0 -4 -6 -24 -14 -44 -18 -29 -4 -37 -2 -37 10 0 19
-55 33 -73 19 -15 -12 -87 -21 -87 -10 0 14 -38 8 -44 -7 -3 -8 -1 -15 5 -15
6 0 7 -5 3 -11 -3 -6 -17 -9 -30 -6 -14 2 -46 0 -72 -5 -26 -5 -89 -10 -141
-12 -105 -5 -120 -13 -122 -66 -5 -179 14 -1765 22 -1798 11 -51 0 -79 -37
-88 -43 -11 -59 16 -59 94 1 37 2 459 3 937 l3 870 -22 17 c-19 16 -49 18
-311 17 -182 -1 -294 3 -300 9 -17 17 0 31 50 38 78 11 122 33 122 60 0 26 48
67 95 79 17 5 33 9 38 10 4 2 11 3 16 4 4 0 20 12 33 26 29 28 111 75 134 75
7 0 14 4 14 9 0 6 25 27 56 47 31 20 58 43 61 51 3 7 14 13 25 13 10 0 26 13
36 29 15 28 28 34 102 48 8 1 38 6 65 9 65 9 94 30 95 70 0 17 3 34 7 37 11
12 36 8 55 -10z m232 2 c-4 -8 -10 -12 -15 -9 -14 8 -10 24 6 24 9 0 12 -6 9
-15z m-1379 -518 c13 -10 16 -21 11 -41 -8 -31 -26 -41 -61 -32 -32 8 -34 49
-3 70 27 19 29 19 53 3z m76 -234 c5 -32 11 -400 14 -818 3 -418 8 -795 11
-838 6 -83 -2 -107 -37 -107 -46 0 -45 -17 -43 741 1 393 5 759 9 814 10 135
8 152 -18 198 l-22 39 29 25 c36 31 47 21 57 -54z m3315 -78 c19 -14 19 -14
-2 -15 -11 0 -29 7 -40 15 -19 14 -19 14 2 15 11 0 29 -7 40 -15z m242 -117
c32 -32 -12 -39 -49 -8 l-24 19 31 1 c16 0 35 -5 42 -12z m-4068 -56 c0 -5
-11 -14 -25 -20 -20 -9 -25 -9 -25 2 0 14 14 24 38 25 6 1 12 -3 12 -7z m4164
2 c9 -3 16 -10 16 -16 0 -14 -53 -5 -58 10 -4 13 16 16 42 6z m-4244 -58 c0
-16 -37 -32 -48 -21 -7 7 25 35 40 35 4 0 8 -6 8 -14z m4367 -11 c3 -9 3 -19
-1 -22 -7 -8 -56 17 -56 29 0 15 50 8 57 -7z m138 -71 c13 -14 39 -29 58 -35
19 -5 47 -20 63 -34 15 -13 41 -27 55 -30 40 -9 99 -72 72 -76 -5 -1 -57 -2
-116 -4 -122 -3 -127 0 -127 75 0 34 -6 48 -31 71 -17 16 -35 29 -40 29 -5 0
-9 7 -9 15 0 25 48 18 75 -11z m-4615 12 c0 -2 -7 -9 -15 -16 -12 -10 -15 -10
-15 4 0 9 7 16 15 16 8 0 15 -2 15 -4z m-245 -176 c-10 -11 -24 -20 -32 -20
-11 0 -11 4 -1 20 7 11 21 20 32 20 18 0 19 -1 1 -20z m-105 -65 c0 -8 -6 -15
-14 -15 -20 0 -29 17 -14 23 22 9 28 7 28 -8z m-90 -64 c0 -11 -38 -36 -68
-46 -24 -7 -24 -7 -6 20 24 37 74 54 74 26z m-186 -66 c18 -14 14 -15 -42 -15
-57 0 -72 6 -55 23 12 12 78 7 97 -8z m2458 -87 c-17 -17 -25 -3 -17 29 l7 28
11 -23 c7 -16 7 -26 -1 -34z m468 -48 c0 -5 -2 -10 -4 -10 -3 0 -8 5 -11 10
-3 6 -1 10 4 10 6 0 11 -4 11 -10z m2440 -142 c0 -31 -15 -45 -24 -22 -8 21
-8 59 1 67 10 11 23 -14 23 -45z m-2582 -59 c3 -84 -4 -127 -19 -112 -14 14
-23 113 -15 158 12 61 31 36 34 -46z m4 -310 c4 -30 9 -97 10 -149 l1 -95 -31
-3 c-31 -3 -32 -3 -21 25 6 15 9 60 8 98 -5 122 0 187 14 183 6 -3 15 -29 19
-59z m-338 -104 c-6 -15 -8 -15 -16 -2 -4 8 -5 23 -2 32 6 15 8 15 16 2 4 -8
5 -23 2 -32z m205 -151 c2 -2 2 -7 -2 -10 -9 -9 -77 5 -77 16 0 8 69 2 79 -6z
m274 -9 c1 -5 -6 -11 -15 -13 -11 -2 -18 3 -18 13 0 17 30 18 33 0z"/>
<path d="M2603 2233 c9 -2 23 -2 30 0 6 3 -1 5 -18 5 -16 0 -22 -2 -12 -5z"/>
</g>
</svg>
